# xmcd CD database file
#
# Track frame offsets:
#	183
#	14980
#	26633
#	43750
#	68590
#	88030
#	114408
#	142303
#	162400
#	178500
#	200500
#
# Disc length: 2817 seconds
#
# Revision: 0
# Processed by: cddbd v1.5.2PL0 Copyright (c) Steve Scherf et al.
# Submitted via: CDex 1.70beta2
#
DISCID=9f0aff0b
DTITLE=Chet Baker - Italian Movies - Music By Piero Umiliani
DYEAR=1962
DGENRE=Jazz
TTITLE0=Improvvisando in Blues
TTITLE1=Motorizzazione
TTITLE2=Furtivamente
TTITLE3=Relaxing With Chet
TTITLE4=I Soliti Ignoti
TTITLE5=Smog
TTITLE6=Twilight at Los Angeles
TTITLE7=Thinking Blues
TTITLE8=Tension
TTITLE9=Alone in a Crowd
TTITLE10=Tema d'amore
EXTD=YEAR: 1962
EXTT0=
EXTT1=
EXTT2=
EXTT3=
EXTT4=
EXTT5=
EXTT6=
EXTT7=
EXTT8=
EXTT9=
EXTT10=
PLAYORDER=
